{
    "asset" : {
        "generator" : "Khronos glTF Blender I/O v3.4.49",
        "version" : "2.0"
    },
    "scene" : 0,
    "scenes" : [
        {
            "name" : "Scene",
            "nodes" : [
                0,
                1,
                2,
                3,
                4,
                5
            ]
        }
    ],
    "nodes" : [
        {
            "mesh" : 0,
            "name" : "Cube",
            "scale" : [
                5.058647155761719,
                5.058647155761719,
                5.058647155761719
            ]
        },
        {
            "mesh" : 1,
            "name" : "Cube.001",
            "rotation" : [
                0.049757033586502075,
                0.7009530663490295,
                0.04913889616727829,
                0.709770679473877
            ],
            "scale" : [
                2.8367483615875244,
                2.047515392303467,
                5.058376312255859
            ],
            "translation" : [
                -1.0187351703643799,
                1.786928653717041,
                -4.79599666595459
            ]
        },
        {
            "mesh" : 2,
            "name" : "Cone",
            "rotation" : [
                0,
                0,
                -0.8882588744163513,
                0.45934316515922546
            ],
            "scale" : [
                0.7568500638008118,
                0.7568500638008118,
                0.7568498849868774
            ],
            "translation" : [
                5.999289512634277,
                -0.8779923319816589,
                -0.025169752538204193
            ]
        },
        {
            "mesh" : 3,
            "name" : "Cube.002",
            "scale" : [
                0.18623197078704834,
                0.18623197078704834,
                0.1010548323392868
            ],
            "translation" : [
                -0.07996389269828796,
                -1.7402808666229248,
                -0.4289804697036743
            ]
        },
        {
            "mesh" : 4,
            "name" : "Cube.004",
            "scale" : [
                0.18623197078704834,
                0.18623197078704834,
                0.1010548323392868
            ],
            "translation" : [
                -0.07996389269828796,
                -1.7402808666229248,
                0.4393489956855774
            ]
        },
        {
            "mesh" : 5,
            "name" : "Cube.003",
            "rotation" : [
                -0.04900186136364937,
                -0.7078402042388916,
                0.04989197477698326,
                0.7029024362564087
            ],
            "scale" : [
                2.8367486000061035,
                2.047515392303467,
                5.058376312255859
            ],
            "translation" : [
                1.067915916442871,
                1.786928653717041,
                4.529330730438232
            ]
        }
    ],
    "materials" : [
        {
            "doubleSided" : true,
            "name" : "Material.001",
            "pbrMetallicRoughness" : {
                "baseColorFactor" : [
                    0.800000011920929,
                    0.800000011920929,
                    0.800000011920929,
                    1
                ],
                "metallicFactor" : 0,
                "roughnessFactor" : 0.7269231081008911
            }
        },
        {
            "doubleSided" : true,
            "name" : "Material",
            "pbrMetallicRoughness" : {
                "baseColorFactor" : [
                    0.8000000715255737,
                    0.4259280264377594,
                    0,
                    1
                ],
                "metallicFactor" : 0,
                "roughnessFactor" : 0.20769231021404266
            }
        },
        {
            "doubleSided" : true,
            "name" : "Material.002",
            "pbrMetallicRoughness" : {
                "baseColorFactor" : [
                    0.060715202242136,
                    0.00467636389657855,
                    0,
                    1
                ],
                "metallicFactor" : 0,
                "roughnessFactor" : 0.7173076868057251
            }
        },
        {
            "doubleSided" : true,
            "name" : "Material.003",
            "pbrMetallicRoughness" : {
                "baseColorFactor" : [
                    0.800000011920929,
                    0.800000011920929,
                    0.800000011920929,
                    1
                ],
                "metallicFactor" : 0,
                "roughnessFactor" : 0.7269231081008911
            }
        }
    ],
    "meshes" : [
        {
            "name" : "Cube.003",
            "primitives" : [
                {
                    "attributes" : {
                        "POSITION" : 0,
                        "TEXCOORD_0" : 1,
                        "NORMAL" : 2
                    },
                    "indices" : 3,
                    "material" : 0
                }
            ]
        },
        {
            "name" : "Cube.001",
            "primitives" : [
                {
                    "attributes" : {
                        "POSITION" : 4,
                        "TEXCOORD_0" : 5,
                        "NORMAL" : 6
                    },
                    "indices" : 7,
                    "material" : 0
                }
            ]
        },
        {
            "name" : "Cone",
            "primitives" : [
                {
                    "attributes" : {
                        "POSITION" : 8,
                        "TEXCOORD_0" : 9,
                        "NORMAL" : 10
                    },
                    "indices" : 11,
                    "material" : 1
                }
            ]
        },
        {
            "name" : "Cube",
            "primitives" : [
                {
                    "attributes" : {
                        "POSITION" : 12,
                        "TEXCOORD_0" : 13,
                        "NORMAL" : 14
                    },
                    "indices" : 15,
                    "material" : 2
                }
            ]
        },
        {
            "name" : "Cube.005",
            "primitives" : [
                {
                    "attributes" : {
                        "POSITION" : 16,
                        "TEXCOORD_0" : 17,
                        "NORMAL" : 18
                    },
                    "indices" : 15,
                    "material" : 2
                }
            ]
        },
        {
            "name" : "Cube.006",
            "primitives" : [
                {
                    "attributes" : {
                        "POSITION" : 19,
                        "TEXCOORD_0" : 20,
                        "NORMAL" : 21
                    },
                    "indices" : 7,
                    "material" : 3
                }
            ]
        }
    ],
    "accessors" : [
        {
            "bufferView" : 0,
            "componentType" : 5126,
            "count" : 435,
            "max" : [
                1.1651967763900757,
                0.3334256112575531,
                0.3247533142566681
            ],
            "min" : [
                -1.160599708557129,
                -0.3361703157424927,
                -0.33717596530914307
            ],
            "type" : "VEC3"
        },
        {
            "bufferView" : 1,
            "componentType" : 5126,
            "count" : 435,
            "type" : "VEC2"
        },
        {
            "bufferView" : 2,
            "componentType" : 5126,
            "count" : 435,
            "type" : "VEC3"
        },
        {
            "bufferView" : 3,
            "componentType" : 5123,
            "count" : 2304,
            "type" : "SCALAR"
        },
        {
            "bufferView" : 4,
            "componentType" : 5126,
            "count" : 24555,
            "max" : [
                1.7742223739624023,
                -0.009654662571847439,
                0.3880259692668915
            ],
            "min" : [
                -1.3829185962677002,
                -0.3963982164859772,
                0.035505831241607666
            ],
            "type" : "VEC3"
        },
        {
            "bufferView" : 5,
            "componentType" : 5126,
            "count" : 24555,
            "type" : "VEC2"
        },
        {
            "bufferView" : 6,
            "componentType" : 5126,
            "count" : 24555,
            "type" : "VEC3"
        },
        {
            "bufferView" : 7,
            "componentType" : 5123,
            "count" : 36864,
            "type" : "SCALAR"
        },
        {
            "bufferView" : 8,
            "componentType" : 5126,
            "count" : 65,
            "max" : [
                1,
                1,
                1
            ],
            "min" : [
                -1,
                -1,
                -1
            ],
            "type" : "VEC3"
        },
        {
            "bufferView" : 9,
            "componentType" : 5126,
            "count" : 65,
            "type" : "VEC2"
        },
        {
            "bufferView" : 10,
            "componentType" : 5126,
            "count" : 65,
            "type" : "VEC3"
        },
        {
            "bufferView" : 11,
            "componentType" : 5123,
            "count" : 186,
            "type" : "SCALAR"
        },
        {
            "bufferView" : 12,
            "componentType" : 5126,
            "count" : 24,
            "max" : [
                1,
                1,
                1
            ],
            "min" : [
                -1,
                -1,
                -1
            ],
            "type" : "VEC3"
        },
        {
            "bufferView" : 13,
            "componentType" : 5126,
            "count" : 24,
            "type" : "VEC2"
        },
        {
            "bufferView" : 14,
            "componentType" : 5126,
            "count" : 24,
            "type" : "VEC3"
        },
        {
            "bufferView" : 15,
            "componentType" : 5123,
            "count" : 36,
            "type" : "SCALAR"
        },
        {
            "bufferView" : 16,
            "componentType" : 5126,
            "count" : 24,
            "max" : [
                1,
                1,
                1
            ],
            "min" : [
                -1,
                -1,
                -1
            ],
            "type" : "VEC3"
        },
        {
            "bufferView" : 17,
            "componentType" : 5126,
            "count" : 24,
            "type" : "VEC2"
        },
        {
            "bufferView" : 18,
            "componentType" : 5126,
            "count" : 24,
            "type" : "VEC3"
        },
        {
            "bufferView" : 19,
            "componentType" : 5126,
            "count" : 24555,
            "max" : [
                1.7742223739624023,
                -0.009654662571847439,
                0.3880259692668915
            ],
            "min" : [
                -1.3829185962677002,
                -0.3963982164859772,
                0.035505831241607666
            ],
            "type" : "VEC3"
        },
        {
            "bufferView" : 20,
            "componentType" : 5126,
            "count" : 24555,
            "type" : "VEC2"
        },
        {
            "bufferView" : 21,
            "componentType" : 5126,
            "count" : 24555,
            "type" : "VEC3"
        }
    ],
    "bufferViews" : [
        {
            "buffer" : 0,
            "byteLength" : 5220,
            "byteOffset" : 0,
            "target" : 34962
        },
        {
            "buffer" : 0,
            "byteLength" : 3480,
            "byteOffset" : 5220,
            "target" : 34962
        },
        {
            "buffer" : 0,
            "byteLength" : 5220,
            "byteOffset" : 8700,
            "target" : 34962
        },
        {
            "buffer" : 0,
            "byteLength" : 4608,
            "byteOffset" : 13920,
            "target" : 34963
        },
        {
            "buffer" : 0,
            "byteLength" : 294660,
            "byteOffset" : 18528,
            "target" : 34962
        },
        {
            "buffer" : 0,
            "byteLength" : 196440,
            "byteOffset" : 313188,
            "target" : 34962
        },
        {
            "buffer" : 0,
            "byteLength" : 294660,
            "byteOffset" : 509628,
            "target" : 34962
        },
        {
            "buffer" : 0,
            "byteLength" : 73728,
            "byteOffset" : 804288,
            "target" : 34963
        },
        {
            "buffer" : 0,
            "byteLength" : 780,
            "byteOffset" : 878016,
            "target" : 34962
        },
        {
            "buffer" : 0,
            "byteLength" : 520,
            "byteOffset" : 878796,
            "target" : 34962
        },
        {
            "buffer" : 0,
            "byteLength" : 780,
            "byteOffset" : 879316,
            "target" : 34962
        },
        {
            "buffer" : 0,
            "byteLength" : 372,
            "byteOffset" : 880096,
            "target" : 34963
        },
        {
            "buffer" : 0,
            "byteLength" : 288,
            "byteOffset" : 880468,
            "target" : 34962
        },
        {
            "buffer" : 0,
            "byteLength" : 192,
            "byteOffset" : 880756,
            "target" : 34962
        },
        {
            "buffer" : 0,
            "byteLength" : 288,
            "byteOffset" : 880948,
            "target" : 34962
        },
        {
            "buffer" : 0,
            "byteLength" : 72,
            "byteOffset" : 881236,
            "target" : 34963
        },
        {
            "buffer" : 0,
            "byteLength" : 288,
            "byteOffset" : 881308,
            "target" : 34962
        },
        {
            "buffer" : 0,
            "byteLength" : 192,
            "byteOffset" : 881596,
            "target" : 34962
        },
        {
            "buffer" : 0,
            "byteLength" : 288,
            "byteOffset" : 881788,
            "target" : 34962
        },
        {
            "buffer" : 0,
            "byteLength" : 294660,
            "byteOffset" : 882076,
            "target" : 34962
        },
        {
            "buffer" : 0,
            "byteLength" : 196440,
            "byteOffset" : 1176736,
            "target" : 34962
        },
        {
            "buffer" : 0,
            "byteLength" : 294660,
            "byteOffset" : 1373176,
            "target" : 34962
        }
    ],
    "buffers" : [
        {
            "byteLength" : 1667836,
            "uri" : "data:application/octet-stream;base64,"
        }
    ]
}
