{
    "asset" : {
        "generator" : "Khronos glTF Blender I/O v3.4.49",
        "version" : "2.0"
    },
    "scene" : 0,
    "scenes" : [
        {
            "name" : "Scene",
            "nodes" : [
                0,
                1,
                2,
                3,
                4,
                5,
                6,
                7
            ]
        }
    ],
    "nodes" : [
        {
            "mesh" : 0,
            "name" : "Cube",
            "scale" : [
                5.058647155761719,
                5.058647155761719,
                5.058647155761719
            ],
            "translation" : [
                6.074911594390869,
                2.304600238800049,
                0
            ]
        },
        {
            "mesh" : 1,
            "name" : "Cube.001",
            "scale" : [
                5.058647155761719,
                5.058647155761719,
                5.058647155761719
            ],
            "translation" : [
                6.074911594390869,
                5.1014404296875,
                0
            ]
        },
        {
            "mesh" : 2,
            "name" : "Cube.002",
            "scale" : [
                5.058647155761719,
                5.058647155761719,
                5.058647155761719
            ],
            "translation" : [
                6.074911594390869,
                9.294381141662598,
                0
            ]
        },
        {
            "mesh" : 3,
            "name" : "Cube.003",
            "scale" : [
                5.058647155761719,
                5.058647155761719,
                5.058647155761719
            ],
            "translation" : [
                6.074911594390869,
                8.175328254699707,
                0
            ]
        },
        {
            "mesh" : 4,
            "name" : "Plane",
            "rotation" : [
                0,
                0,
                -0.144181028008461,
                0.989551305770874
            ],
            "translation" : [
                0.035044535994529724,
                7.591041564941406,
                0.1029890924692154
            ]
        },
        {
            "mesh" : 5,
            "name" : "Plane.001",
            "rotation" : [
                0,
                0,
                -0.144181028008461,
                0.989551305770874
            ],
            "translation" : [
                0.015560440719127655,
                7.438277244567871,
                -3.514171600341797
            ]
        },
        {
            "mesh" : 6,
            "name" : "Plane.002",
            "rotation" : [
                0,
                0,
                -0.144181028008461,
                0.989551305770874
            ],
            "translation" : [
                0.035044535994529724,
                7.821972370147705,
                0.1029890924692154
            ]
        },
        {
            "mesh" : 7,
            "name" : "Plane.003",
            "rotation" : [
                0,
                0,
                -0.144181028008461,
                0.989551305770874
            ],
            "translation" : [
                0.035044535994529724,
                7.7346510887146,
                -3.5316083431243896
            ]
        }
    ],
    "materials" : [
        {
            "doubleSided" : true,
            "name" : "Material.002",
            "pbrMetallicRoughness" : {
                "baseColorFactor" : [
                    1,
                    1,
                    1,
                    1
                ],
                "metallicFactor" : 0,
                "roughnessFactor" : 0.36153846979141235
            }
        },
        {
            "doubleSided" : true,
            "name" : "Material.003",
            "pbrMetallicRoughness" : {
                "baseColorFactor" : [
                    0.8000000715255737,
                    0.043392766267061234,
                    0,
                    1
                ],
                "metallicFactor" : 0,
                "roughnessFactor" : 0.4000000059604645
            }
        },
        {
            "doubleSided" : true,
            "name" : "Material",
            "pbrMetallicRoughness" : {
                "baseColorFactor" : [
                    0.053672097623348236,
                    0.8000000715255737,
                    0,
                    1
                ],
                "metallicFactor" : 0,
                "roughnessFactor" : 0.3423076868057251
            }
        },
        {
            "doubleSided" : true,
            "name" : "Material.004",
            "pbrMetallicRoughness" : {
                "baseColorFactor" : [
                    1,
                    1,
                    1,
                    1
                ],
                "metallicFactor" : 0,
                "roughnessFactor" : 0.36153846979141235
            }
        },
        {
            "doubleSided" : true,
            "name" : "Material.005",
            "pbrMetallicRoughness" : {
                "baseColorFactor" : [
                    0.800000011920929,
                    0.800000011920929,
                    0.800000011920929,
                    1
                ],
                "metallicFactor" : 0,
                "roughnessFactor" : 0
            }
        },
        {
            "doubleSided" : true,
            "name" : "Material.007",
            "pbrMetallicRoughness" : {
                "baseColorFactor" : [
                    0,
                    0,
                    0,
                    1
                ],
                "metallicFactor" : 0,
                "roughnessFactor" : 0
            }
        },
        {
            "doubleSided" : true,
            "name" : "Material.008",
            "pbrMetallicRoughness" : {
                "baseColorFactor" : [
                    0,
                    0,
                    0,
                    1
                ],
                "metallicFactor" : 0,
                "roughnessFactor" : 0
            }
        }
    ],
    "meshes" : [
        {
            "name" : "Cube.003",
            "primitives" : [
                {
                    "attributes" : {
                        "POSITION" : 0,
                        "TEXCOORD_0" : 1,
                        "NORMAL" : 2
                    },
                    "indices" : 3,
                    "material" : 0
                }
            ]
        },
        {
            "name" : "Cube.001",
            "primitives" : [
                {
                    "attributes" : {
                        "POSITION" : 4,
                        "TEXCOORD_0" : 5,
                        "NORMAL" : 6
                    },
                    "indices" : 3,
                    "material" : 1
                }
            ]
        },
        {
            "name" : "Cube.002",
            "primitives" : [
                {
                    "attributes" : {
                        "POSITION" : 7,
                        "TEXCOORD_0" : 8,
                        "NORMAL" : 9
                    },
                    "indices" : 10,
                    "material" : 2
                }
            ]
        },
        {
            "name" : "Cube.004",
            "primitives" : [
                {
                    "attributes" : {
                        "COLOR_0" : 11,
                        "POSITION" : 12,
                        "TEXCOORD_0" : 13,
                        "NORMAL" : 14
                    },
                    "indices" : 15,
                    "material" : 3
                }
            ]
        },
        {
            "name" : "Plane",
            "primitives" : [
                {
                    "attributes" : {
                        "POSITION" : 16,
                        "TEXCOORD_0" : 17,
                        "NORMAL" : 18
                    },
                    "indices" : 19,
                    "material" : 4
                }
            ]
        },
        {
            "name" : "Plane.001",
            "primitives" : [
                {
                    "attributes" : {
                        "POSITION" : 20,
                        "TEXCOORD_0" : 21,
                        "NORMAL" : 22
                    },
                    "indices" : 23,
                    "material" : 4
                }
            ]
        },
        {
            "name" : "Plane.002",
            "primitives" : [
                {
                    "attributes" : {
                        "POSITION" : 24,
                        "TEXCOORD_0" : 25,
                        "NORMAL" : 26
                    },
                    "indices" : 27,
                    "material" : 5
                }
            ]
        },
        {
            "name" : "Plane.003",
            "primitives" : [
                {
                    "attributes" : {
                        "POSITION" : 28,
                        "TEXCOORD_0" : 29,
                        "NORMAL" : 30
                    },
                    "indices" : 31,
                    "material" : 6
                }
            ]
        }
    ],
    "accessors" : [
        {
            "bufferView" : 0,
            "componentType" : 5126,
            "count" : 1537,
            "max" : [
                0.9735015630722046,
                -0.3602277934551239,
                1.0000001192092896
            ],
            "min" : [
                -3.2783186435699463,
                -0.990129828453064,
                -1.0000001192092896
            ],
            "type" : "VEC3"
        },
        {
            "bufferView" : 1,
            "componentType" : 5126,
            "count" : 1537,
            "type" : "VEC2"
        },
        {
            "bufferView" : 2,
            "componentType" : 5126,
            "count" : 1537,
            "type" : "VEC3"
        },
        {
            "bufferView" : 3,
            "componentType" : 5123,
            "count" : 8448,
            "type" : "SCALAR"
        },
        {
            "bufferView" : 4,
            "componentType" : 5126,
            "count" : 1537,
            "max" : [
                0.9735015630722046,
                -0.3602277934551239,
                0.8128064870834351
            ],
            "min" : [
                -3.2783186435699463,
                -0.990129828453064,
                -0.7885100245475769
            ],
            "type" : "VEC3"
        },
        {
            "bufferView" : 5,
            "componentType" : 5126,
            "count" : 1537,
            "type" : "VEC2"
        },
        {
            "bufferView" : 6,
            "componentType" : 5126,
            "count" : 1537,
            "type" : "VEC3"
        },
        {
            "bufferView" : 7,
            "componentType" : 5126,
            "count" : 10573,
            "max" : [
                0.9866527318954468,
                -0.11610663682222366,
                1.000000238418579
            ],
            "min" : [
                -3.2867636680603027,
                -0.9925150275230408,
                -1.000000238418579
            ],
            "type" : "VEC3"
        },
        {
            "bufferView" : 8,
            "componentType" : 5126,
            "count" : 10573,
            "type" : "VEC2"
        },
        {
            "bufferView" : 9,
            "componentType" : 5126,
            "count" : 10573,
            "type" : "VEC3"
        },
        {
            "bufferView" : 10,
            "componentType" : 5123,
            "count" : 56064,
            "type" : "SCALAR"
        },
        {
            "bufferView" : 11,
            "componentType" : 5123,
            "count" : 2151,
            "normalized" : true,
            "type" : "VEC4"
        },
        {
            "bufferView" : 12,
            "componentType" : 5126,
            "count" : 2151,
            "max" : [
                0.9737734794616699,
                -0.6728787422180176,
                1.0000425577163696
            ],
            "min" : [
                -3.2783188819885254,
                -1.008799433708191,
                -1.0000001192092896
            ],
            "type" : "VEC3"
        },
        {
            "bufferView" : 13,
            "componentType" : 5126,
            "count" : 2151,
            "type" : "VEC2"
        },
        {
            "bufferView" : 14,
            "componentType" : 5126,
            "count" : 2151,
            "type" : "VEC3"
        },
        {
            "bufferView" : 15,
            "componentType" : 5123,
            "count" : 11520,
            "type" : "SCALAR"
        },
        {
            "bufferView" : 16,
            "componentType" : 5126,
            "count" : 256,
            "max" : [
                2.3295698165893555,
                -0.016116976737976074,
                4.372674942016602
            ],
            "min" : [
                -2.3182225227355957,
                -0.016117099672555923,
                -0.27511656284332275
            ],
            "type" : "VEC3"
        },
        {
            "bufferView" : 17,
            "componentType" : 5126,
            "count" : 256,
            "type" : "VEC2"
        },
        {
            "bufferView" : 18,
            "componentType" : 5126,
            "count" : 256,
            "type" : "VEC3"
        },
        {
            "bufferView" : 19,
            "componentType" : 5123,
            "count" : 384,
            "type" : "SCALAR"
        },
        {
            "bufferView" : 20,
            "componentType" : 5126,
            "count" : 256,
            "max" : [
                2.3295698165893555,
                -0.027875253930687904,
                3.7497923374176025
            ],
            "min" : [
                -2.3182225227355957,
                -0.02787536196410656,
                -0.8980005383491516
            ],
            "type" : "VEC3"
        },
        {
            "bufferView" : 21,
            "componentType" : 5126,
            "count" : 256,
            "type" : "VEC2"
        },
        {
            "bufferView" : 22,
            "componentType" : 5126,
            "count" : 256,
            "type" : "VEC3"
        },
        {
            "bufferView" : 23,
            "componentType" : 5123,
            "count" : 384,
            "type" : "SCALAR"
        },
        {
            "bufferView" : 24,
            "componentType" : 5126,
            "count" : 256,
            "max" : [
                0.8288272619247437,
                0.02199639566242695,
                2.8832807540893555
            ],
            "min" : [
                -0.8401747941970825,
                0.021996352821588516,
                1.2142786979675293
            ],
            "type" : "VEC3"
        },
        {
            "bufferView" : 25,
            "componentType" : 5126,
            "count" : 256,
            "type" : "VEC2"
        },
        {
            "bufferView" : 26,
            "componentType" : 5126,
            "count" : 256,
            "type" : "VEC3"
        },
        {
            "bufferView" : 27,
            "componentType" : 5123,
            "count" : 384,
            "type" : "SCALAR"
        },
        {
            "bufferView" : 28,
            "componentType" : 5126,
            "count" : 256,
            "max" : [
                0.8288272619247437,
                0.02199639566242695,
                2.257394313812256
            ],
            "min" : [
                -0.8401747941970825,
                0.021996352821588516,
                0.5883924961090088
            ],
            "type" : "VEC3"
        },
        {
            "bufferView" : 29,
            "componentType" : 5126,
            "count" : 256,
            "type" : "VEC2"
        },
        {
            "bufferView" : 30,
            "componentType" : 5126,
            "count" : 256,
            "type" : "VEC3"
        },
        {
            "bufferView" : 31,
            "componentType" : 5123,
            "count" : 384,
            "type" : "SCALAR"
        }
    ],
    "bufferViews" : [
        {
            "buffer" : 0,
            "byteLength" : 18444,
            "byteOffset" : 0,
            "target" : 34962
        },
        {
            "buffer" : 0,
            "byteLength" : 12296,
            "byteOffset" : 18444,
            "target" : 34962
        },
        {
            "buffer" : 0,
            "byteLength" : 18444,
            "byteOffset" : 30740,
            "target" : 34962
        },
        {
            "buffer" : 0,
            "byteLength" : 16896,
            "byteOffset" : 49184,
            "target" : 34963
        },
        {
            "buffer" : 0,
            "byteLength" : 18444,
            "byteOffset" : 66080,
            "target" : 34962
        },
        {
            "buffer" : 0,
            "byteLength" : 12296,
            "byteOffset" : 84524,
            "target" : 34962
        },
        {
            "buffer" : 0,
            "byteLength" : 18444,
            "byteOffset" : 96820,
            "target" : 34962
        },
        {
            "buffer" : 0,
            "byteLength" : 126876,
            "byteOffset" : 115264,
            "target" : 34962
        },
        {
            "buffer" : 0,
            "byteLength" : 84584,
            "byteOffset" : 242140,
            "target" : 34962
        },
        {
            "buffer" : 0,
            "byteLength" : 126876,
            "byteOffset" : 326724,
            "target" : 34962
        },
        {
            "buffer" : 0,
            "byteLength" : 112128,
            "byteOffset" : 453600,
            "target" : 34963
        },
        {
            "buffer" : 0,
            "byteLength" : 17208,
            "byteOffset" : 565728,
            "target" : 34962
        },
        {
            "buffer" : 0,
            "byteLength" : 25812,
            "byteOffset" : 582936,
            "target" : 34962
        },
        {
            "buffer" : 0,
            "byteLength" : 17208,
            "byteOffset" : 608748,
            "target" : 34962
        },
        {
            "buffer" : 0,
            "byteLength" : 25812,
            "byteOffset" : 625956,
            "target" : 34962
        },
        {
            "buffer" : 0,
            "byteLength" : 23040,
            "byteOffset" : 651768,
            "target" : 34963
        },
        {
            "buffer" : 0,
            "byteLength" : 3072,
            "byteOffset" : 674808,
            "target" : 34962
        },
        {
            "buffer" : 0,
            "byteLength" : 2048,
            "byteOffset" : 677880,
            "target" : 34962
        },
        {
            "buffer" : 0,
            "byteLength" : 3072,
            "byteOffset" : 679928,
            "target" : 34962
        },
        {
            "buffer" : 0,
            "byteLength" : 768,
            "byteOffset" : 683000,
            "target" : 34963
        },
        {
            "buffer" : 0,
            "byteLength" : 3072,
            "byteOffset" : 683768,
            "target" : 34962
        },
        {
            "buffer" : 0,
            "byteLength" : 2048,
            "byteOffset" : 686840,
            "target" : 34962
        },
        {
            "buffer" : 0,
            "byteLength" : 3072,
            "byteOffset" : 688888,
            "target" : 34962
        },
        {
            "buffer" : 0,
            "byteLength" : 768,
            "byteOffset" : 691960,
            "target" : 34963
        },
        {
            "buffer" : 0,
            "byteLength" : 3072,
            "byteOffset" : 692728,
            "target" : 34962
        },
        {
            "buffer" : 0,
            "byteLength" : 2048,
            "byteOffset" : 695800,
            "target" : 34962
        },
        {
            "buffer" : 0,
            "byteLength" : 3072,
            "byteOffset" : 697848,
            "target" : 34962
        },
        {
            "buffer" : 0,
            "byteLength" : 768,
            "byteOffset" : 700920,
            "target" : 34963
        },
        {
            "buffer" : 0,
            "byteLength" : 3072,
            "byteOffset" : 701688,
            "target" : 34962
        },
        {
            "buffer" : 0,
            "byteLength" : 2048,
            "byteOffset" : 704760,
            "target" : 34962
        },
        {
            "buffer" : 0,
            "byteLength" : 3072,
            "byteOffset" : 706808,
            "target" : 34962
        },
        {
            "buffer" : 0,
            "byteLength" : 768,
            "byteOffset" : 709880,
            "target" : 34963
        }
    ],
    "buffers" : [
        {
            "byteLength" : 710648,
            "uri" : "data:application/octet-stream;base64,"
        }
    ]
}
