{
    "asset" : {
        "generator" : "Khronos glTF Blender I/O v3.4.49",
        "version" : "2.0"
    },
    "scene" : 0,
    "scenes" : [
        {
            "name" : "Scene",
            "nodes" : [
                0,
                1,
                2
            ]
        }
    ],
    "nodes" : [
        {
            "mesh" : 0,
            "name" : "Cube",
            "scale" : [
                5.058647155761719,
                5.058647155761719,
                4.365927219390869
            ],
            "translation" : [
                6.871509552001953,
                0,
                0
            ]
        },
        {
            "mesh" : 1,
            "name" : "Cube.001",
            "scale" : [
                3.325916290283203,
                3.325916290283203,
                3.325916290283203
            ],
            "translation" : [
                5.05409049987793,
                1.6685147285461426,
                0
            ]
        },
        {
            "mesh" : 2,
            "name" : "Cube.002",
            "scale" : [
                2.8377277851104736,
                2.43507719039917,
                2.43507719039917
            ],
            "translation" : [
                0,
                3.362309455871582,
                0
            ]
        }
    ],
    "materials" : [
        {
            "doubleSided" : true,
            "name" : "Material",
            "pbrMetallicRoughness" : {
                "baseColorFactor" : [
                    0.8000000715255737,
                    0.6831620931625366,
                    0,
                    1
                ],
                "metallicFactor" : 0,
                "roughnessFactor" : 0.16923077404499054
            }
        }
    ],
    "meshes" : [
        {
            "name" : "Cube.003",
            "primitives" : [
                {
                    "attributes" : {
                        "POSITION" : 0,
                        "TEXCOORD_0" : 1,
                        "NORMAL" : 2
                    },
                    "indices" : 3,
                    "material" : 0
                }
            ]
        },
        {
            "name" : "Cube.001",
            "primitives" : [
                {
                    "attributes" : {
                        "POSITION" : 4,
                        "TEXCOORD_0" : 5,
                        "NORMAL" : 6
                    },
                    "indices" : 7,
                    "material" : 0
                }
            ]
        },
        {
            "name" : "Cube.002",
            "primitives" : [
                {
                    "attributes" : {
                        "POSITION" : 8,
                        "TEXCOORD_0" : 9,
                        "NORMAL" : 10
                    },
                    "indices" : 11,
                    "material" : 0
                }
            ]
        }
    ],
    "accessors" : [
        {
            "bufferView" : 0,
            "componentType" : 5126,
            "count" : 4290,
            "max" : [
                0.8484398126602173,
                -0.22220516204833984,
                1
            ],
            "min" : [
                -3.362811803817749,
                -1.000000238418579,
                -1
            ],
            "type" : "VEC3"
        },
        {
            "bufferView" : 1,
            "componentType" : 5126,
            "count" : 4290,
            "type" : "VEC2"
        },
        {
            "bufferView" : 2,
            "componentType" : 5126,
            "count" : 4290,
            "type" : "VEC3"
        },
        {
            "bufferView" : 3,
            "componentType" : 5123,
            "count" : 24576,
            "type" : "SCALAR"
        },
        {
            "bufferView" : 4,
            "componentType" : 5126,
            "count" : 5918,
            "max" : [
                0.8484398126602173,
                -0.22220516204833984,
                1
            ],
            "min" : [
                -4.570657253265381,
                -1.000000238418579,
                -1
            ],
            "type" : "VEC3"
        },
        {
            "bufferView" : 5,
            "componentType" : 5126,
            "count" : 5918,
            "type" : "VEC2"
        },
        {
            "bufferView" : 6,
            "componentType" : 5126,
            "count" : 5918,
            "type" : "VEC3"
        },
        {
            "bufferView" : 7,
            "componentType" : 5123,
            "count" : 33792,
            "type" : "SCALAR"
        },
        {
            "bufferView" : 8,
            "componentType" : 5126,
            "count" : 4290,
            "max" : [
                0.7339200377464294,
                -0.22068282961845398,
                0.7416268587112427
            ],
            "min" : [
                -3.355226516723633,
                -0.9984776973724365,
                -0.7765620350837708
            ],
            "type" : "VEC3"
        },
        {
            "bufferView" : 9,
            "componentType" : 5126,
            "count" : 4290,
            "type" : "VEC2"
        },
        {
            "bufferView" : 10,
            "componentType" : 5126,
            "count" : 4290,
            "type" : "VEC3"
        },
        {
            "bufferView" : 11,
            "componentType" : 5123,
            "count" : 24576,
            "type" : "SCALAR"
        }
    ],
    "bufferViews" : [
        {
            "buffer" : 0,
            "byteLength" : 51480,
            "byteOffset" : 0,
            "target" : 34962
        },
        {
            "buffer" : 0,
            "byteLength" : 34320,
            "byteOffset" : 51480,
            "target" : 34962
        },
        {
            "buffer" : 0,
            "byteLength" : 51480,
            "byteOffset" : 85800,
            "target" : 34962
        },
        {
            "buffer" : 0,
            "byteLength" : 49152,
            "byteOffset" : 137280,
            "target" : 34963
        },
        {
            "buffer" : 0,
            "byteLength" : 71016,
            "byteOffset" : 186432,
            "target" : 34962
        },
        {
            "buffer" : 0,
            "byteLength" : 47344,
            "byteOffset" : 257448,
            "target" : 34962
        },
        {
            "buffer" : 0,
            "byteLength" : 71016,
            "byteOffset" : 304792,
            "target" : 34962
        },
        {
            "buffer" : 0,
            "byteLength" : 67584,
            "byteOffset" : 375808,
            "target" : 34963
        },
        {
            "buffer" : 0,
            "byteLength" : 51480,
            "byteOffset" : 443392,
            "target" : 34962
        },
        {
            "buffer" : 0,
            "byteLength" : 34320,
            "byteOffset" : 494872,
            "target" : 34962
        },
        {
            "buffer" : 0,
            "byteLength" : 51480,
            "byteOffset" : 529192,
            "target" : 34962
        },
        {
            "buffer" : 0,
            "byteLength" : 49152,
            "byteOffset" : 580672,
            "target" : 34963
        }
    ],
    "buffers" : [
        {
            "byteLength" : 629824,
            "uri" : "data:application/octet-stream;base64,"
        }
    ]
}
