{
    "asset" : {
        "generator" : "Khronos glTF Blender I/O v3.4.49",
        "version" : "2.0"
    },
    "scene" : 0,
    "scenes" : [
        {
            "name" : "Scene",
            "nodes" : [
                0,
                1
            ]
        }
    ],
    "nodes" : [
        {
            "mesh" : 0,
            "name" : "Dough",
            "translation" : [
                0,
                0.2777079939842224,
                0
            ]
        },
        {
            "mesh" : 1,
            "name" : "Icing",
            "translation" : [
                0,
                -0.13534194231033325,
                0
            ]
        }
    ],
    "materials" : [
        {
            "doubleSided" : true,
            "name" : "Material.002",
            "pbrMetallicRoughness" : {
                "baseColorTexture" : {
                    "index" : 0
                },
                "metallicFactor" : 0
            }
        },
        {
            "doubleSided" : true,
            "name" : "Material.001",
            "pbrMetallicRoughness" : {
                "baseColorFactor" : [
                    0.08650045096874237,
                    0.018500184640288353,
                    0.02217388153076172,
                    1
                ],
                "metallicFactor" : 0,
                "roughnessFactor" : 0.20150327682495117
            }
        }
    ],
    "meshes" : [
        {
            "name" : "Torus",
            "primitives" : [
                {
                    "attributes" : {
                        "POSITION" : 0,
                        "TEXCOORD_0" : 1,
                        "NORMAL" : 2
                    },
                    "indices" : 3,
                    "material" : 0
                }
            ]
        },
        {
            "name" : "Torus.001",
            "primitives" : [
                {
                    "attributes" : {
                        "POSITION" : 4,
                        "TEXCOORD_0" : 5,
                        "NORMAL" : 6
                    },
                    "indices" : 7,
                    "material" : 1
                }
            ]
        }
    ],
    "textures" : [
        {
            "sampler" : 0,
            "source" : 0
        }
    ],
    "images" : [
        {
            "bufferView" : 4,
            "mimeType" : "image/png",
            "name" : "Donut2"
        }
    ],
    "accessors" : [
        {
            "bufferView" : 0,
            "componentType" : 5126,
            "count" : 2511,
            "max" : [
                0.479320764541626,
                0.22018131613731384,
                0.47863054275512695
            ],
            "min" : [
                -0.47939667105674744,
                -0.2149025946855545,
                -0.4785690903663635
            ],
            "type" : "VEC3"
        },
        {
            "bufferView" : 1,
            "componentType" : 5126,
            "count" : 2511,
            "type" : "VEC2"
        },
        {
            "bufferView" : 2,
            "componentType" : 5126,
            "count" : 2511,
            "type" : "VEC3"
        },
        {
            "bufferView" : 3,
            "componentType" : 5123,
            "count" : 14400,
            "type" : "SCALAR"
        },
        {
            "bufferView" : 5,
            "componentType" : 5126,
            "count" : 9740,
            "max" : [
                0.49674534797668457,
                0.6544083952903748,
                0.514099657535553
            ],
            "min" : [
                -0.49903544783592224,
                0.34039387106895447,
                -0.5020528435707092
            ],
            "type" : "VEC3"
        },
        {
            "bufferView" : 6,
            "componentType" : 5126,
            "count" : 9740,
            "type" : "VEC2"
        },
        {
            "bufferView" : 7,
            "componentType" : 5126,
            "count" : 9740,
            "type" : "VEC3"
        },
        {
            "bufferView" : 8,
            "componentType" : 5123,
            "count" : 58080,
            "type" : "SCALAR"
        }
    ],
    "bufferViews" : [
        {
            "buffer" : 0,
            "byteLength" : 30132,
            "byteOffset" : 0,
            "target" : 34962
        },
        {
            "buffer" : 0,
            "byteLength" : 20088,
            "byteOffset" : 30132,
            "target" : 34962
        },
        {
            "buffer" : 0,
            "byteLength" : 30132,
            "byteOffset" : 50220,
            "target" : 34962
        },
        {
            "buffer" : 0,
            "byteLength" : 28800,
            "byteOffset" : 80352,
            "target" : 34963
        },
        {
            "buffer" : 0,
            "byteLength" : 28746,
            "byteOffset" : 109152
        },
        {
            "buffer" : 0,
            "byteLength" : 116880,
            "byteOffset" : 137900,
            "target" : 34962
        },
        {
            "buffer" : 0,
            "byteLength" : 77920,
            "byteOffset" : 254780,
            "target" : 34962
        },
        {
            "buffer" : 0,
            "byteLength" : 116880,
            "byteOffset" : 332700,
            "target" : 34962
        },
        {
            "buffer" : 0,
            "byteLength" : 116160,
            "byteOffset" : 449580,
            "target" : 34963
        }
    ],
    "samplers" : [
        {
            "magFilter" : 9729,
            "minFilter" : 9987
        }
    ],
    "buffers" : [
        {
            "byteLength" : 565740,
            "uri" : "data:application/octet-stream;base64,"
        }
    ]
}
