{
    "asset" : {
        "generator" : "Khronos glTF Blender I/O v3.4.49",
        "version" : "2.0"
    },
    "scene" : 0,
    "scenes" : [
        {
            "name" : "Scene",
            "nodes" : [
                0
            ]
        }
    ],
    "nodes" : [
        {
            "mesh" : 0,
            "name" : "Cube.001",
            "rotation" : [
                0,
                0.7088740468025208,
                0,
                0.7053351402282715
            ],
            "scale" : [
                2.025326728820801,
                0.9170436263084412,
                2.025326728820801
            ],
            "translation" : [
                -0.26952600479125977,
                0.7497469186782837,
                -7.75567626953125
            ]
        }
    ],
    "materials" : [
        {
            "doubleSided" : true,
            "name" : "Material.001",
            "pbrMetallicRoughness" : {
                "baseColorFactor" : [
                    0.432647705078125,
                    0.8000000715255737,
                    0.27870720624923706,
                    1
                ],
                "metallicFactor" : 0,
                "roughnessFactor" : 0.11564625799655914
            }
        },
        {
            "doubleSided" : true,
            "name" : "Material",
            "pbrMetallicRoughness" : {
                "baseColorFactor" : [
                    0,
                    0.8000000715255737,
                    0.00243441597558558,
                    1
                ],
                "metallicFactor" : 0,
                "roughnessFactor" : 0.03401360660791397
            }
        }
    ],
    "meshes" : [
        {
            "name" : "Cube.001",
            "primitives" : [
                {
                    "attributes" : {
                        "POSITION" : 0,
                        "TEXCOORD_0" : 1,
                        "NORMAL" : 2
                    },
                    "indices" : 3,
                    "material" : 0
                },
                {
                    "attributes" : {
                        "POSITION" : 4,
                        "TEXCOORD_0" : 5,
                        "NORMAL" : 6
                    },
                    "indices" : 7,
                    "material" : 1
                }
            ]
        }
    ],
    "accessors" : [
        {
            "bufferView" : 0,
            "componentType" : 5126,
            "count" : 2752,
            "max" : [
                0.8297638297080994,
                0.8540270328521729,
                0.9367688298225403
            ],
            "min" : [
                -8.450553894042969,
                -0.7943001389503479,
                -0.9687375426292419
            ],
            "type" : "VEC3"
        },
        {
            "bufferView" : 1,
            "componentType" : 5126,
            "count" : 2752,
            "type" : "VEC2"
        },
        {
            "bufferView" : 2,
            "componentType" : 5126,
            "count" : 2752,
            "type" : "VEC3"
        },
        {
            "bufferView" : 3,
            "componentType" : 5123,
            "count" : 4128,
            "type" : "SCALAR"
        },
        {
            "bufferView" : 4,
            "componentType" : 5126,
            "count" : 384,
            "max" : [
                -1.7262957096099854,
                1.826258897781372,
                4.031863212585449
            ],
            "min" : [
                -5.919902801513672,
                -3.192572593688965,
                -3.8544576168060303
            ],
            "type" : "VEC3"
        },
        {
            "bufferView" : 5,
            "componentType" : 5126,
            "count" : 384,
            "type" : "VEC2"
        },
        {
            "bufferView" : 6,
            "componentType" : 5126,
            "count" : 384,
            "type" : "VEC3"
        },
        {
            "bufferView" : 7,
            "componentType" : 5123,
            "count" : 576,
            "type" : "SCALAR"
        }
    ],
    "bufferViews" : [
        {
            "buffer" : 0,
            "byteLength" : 33024,
            "byteOffset" : 0,
            "target" : 34962
        },
        {
            "buffer" : 0,
            "byteLength" : 22016,
            "byteOffset" : 33024,
            "target" : 34962
        },
        {
            "buffer" : 0,
            "byteLength" : 33024,
            "byteOffset" : 55040,
            "target" : 34962
        },
        {
            "buffer" : 0,
            "byteLength" : 8256,
            "byteOffset" : 88064,
            "target" : 34963
        },
        {
            "buffer" : 0,
            "byteLength" : 4608,
            "byteOffset" : 96320,
            "target" : 34962
        },
        {
            "buffer" : 0,
            "byteLength" : 3072,
            "byteOffset" : 100928,
            "target" : 34962
        },
        {
            "buffer" : 0,
            "byteLength" : 4608,
            "byteOffset" : 104000,
            "target" : 34962
        },
        {
            "buffer" : 0,
            "byteLength" : 1152,
            "byteOffset" : 108608,
            "target" : 34963
        }
    ],
    "buffers" : [
        {
            "byteLength" : 109760,
            "uri" : "data:application/octet-stream;base64,"
        }
    ]
}
