{
    "asset" : {
        "generator" : "Khronos glTF Blender I/O v3.4.49",
        "version" : "2.0"
    },
    "scene" : 0,
    "scenes" : [
        {
            "name" : "Scene",
            "nodes" : [
                0,
                1,
                2
            ]
        }
    ],
    "nodes" : [
        {
            "mesh" : 0,
            "name" : "Cube",
            "scale" : [
                5.058647155761719,
                4.420358180999756,
                5.058647155761719
            ],
            "translation" : [
                4.4033074378967285,
                1.802433729171753,
                -0.013648241758346558
            ]
        },
        {
            "mesh" : 1,
            "name" : "Cube.001",
            "rotation" : [
                0,
                0.7088740468025208,
                0,
                0.7053351402282715
            ],
            "scale" : [
                2.025326728820801,
                0.9170436263084412,
                2.025326728820801
            ],
            "translation" : [
                -0.26952600479125977,
                0.7497469186782837,
                -7.75567626953125
            ]
        },
        {
            "mesh" : 2,
            "name" : "Cube.002",
            "rotation" : [
                0,
                -0.7072322964668274,
                0,
                0.7069813013076782
            ],
            "scale" : [
                2.0253264904022217,
                0.9170436263084412,
                2.0253264904022217
            ],
            "translation" : [
                -0.26952600479125977,
                0.7497469186782837,
                7.67913293838501
            ]
        }
    ],
    "materials" : [
        {
            "doubleSided" : true,
            "name" : "Material",
            "pbrMetallicRoughness" : {
                "baseColorFactor" : [
                    0,
                    0.8000000715255737,
                    0.00243441597558558,
                    1
                ],
                "metallicFactor" : 0,
                "roughnessFactor" : 0.03401360660791397
            }
        },
        {
            "doubleSided" : true,
            "name" : "Material.001",
            "pbrMetallicRoughness" : {
                "baseColorFactor" : [
                    0.432647705078125,
                    0.8000000715255737,
                    0.27870720624923706,
                    1
                ],
                "metallicFactor" : 0,
                "roughnessFactor" : 0.11564625799655914
            }
        }
    ],
    "meshes" : [
        {
            "name" : "Cube.003",
            "primitives" : [
                {
                    "attributes" : {
                        "POSITION" : 0,
                        "TEXCOORD_0" : 1,
                        "NORMAL" : 2
                    },
                    "indices" : 3,
                    "material" : 0
                }
            ]
        },
        {
            "name" : "Cube.001",
            "primitives" : [
                {
                    "attributes" : {
                        "POSITION" : 4,
                        "TEXCOORD_0" : 5,
                        "NORMAL" : 6
                    },
                    "indices" : 7,
                    "material" : 1
                }
            ]
        },
        {
            "name" : "Cube.002",
            "primitives" : [
                {
                    "attributes" : {
                        "POSITION" : 8,
                        "TEXCOORD_0" : 9,
                        "NORMAL" : 10
                    },
                    "indices" : 7,
                    "material" : 1
                }
            ]
        }
    ],
    "accessors" : [
        {
            "bufferView" : 0,
            "componentType" : 5126,
            "count" : 441,
            "max" : [
                0.6981821060180664,
                0.14072895050048828,
                0.8395062685012817
            ],
            "min" : [
                -2.4592976570129395,
                -0.9004735350608826,
                -0.8395062685012817
            ],
            "type" : "VEC3"
        },
        {
            "bufferView" : 1,
            "componentType" : 5126,
            "count" : 441,
            "type" : "VEC2"
        },
        {
            "bufferView" : 2,
            "componentType" : 5126,
            "count" : 441,
            "type" : "VEC3"
        },
        {
            "bufferView" : 3,
            "componentType" : 5123,
            "count" : 2304,
            "type" : "SCALAR"
        },
        {
            "bufferView" : 4,
            "componentType" : 5126,
            "count" : 5504,
            "max" : [
                0.8297638297080994,
                0.8573955297470093,
                0.9436861276626587
            ],
            "min" : [
                -2.676640510559082,
                -0.8005114197731018,
                -0.9436861276626587
            ],
            "type" : "VEC3"
        },
        {
            "bufferView" : 5,
            "componentType" : 5126,
            "count" : 5504,
            "type" : "VEC2"
        },
        {
            "bufferView" : 6,
            "componentType" : 5126,
            "count" : 5504,
            "type" : "VEC3"
        },
        {
            "bufferView" : 7,
            "componentType" : 5123,
            "count" : 8256,
            "type" : "SCALAR"
        },
        {
            "bufferView" : 8,
            "componentType" : 5126,
            "count" : 5504,
            "max" : [
                0.8297638297080994,
                0.8573955297470093,
                0.9436861276626587
            ],
            "min" : [
                -2.676640510559082,
                -0.8005114197731018,
                -0.9436861276626587
            ],
            "type" : "VEC3"
        },
        {
            "bufferView" : 9,
            "componentType" : 5126,
            "count" : 5504,
            "type" : "VEC2"
        },
        {
            "bufferView" : 10,
            "componentType" : 5126,
            "count" : 5504,
            "type" : "VEC3"
        }
    ],
    "bufferViews" : [
        {
            "buffer" : 0,
            "byteLength" : 5292,
            "byteOffset" : 0,
            "target" : 34962
        },
        {
            "buffer" : 0,
            "byteLength" : 3528,
            "byteOffset" : 5292,
            "target" : 34962
        },
        {
            "buffer" : 0,
            "byteLength" : 5292,
            "byteOffset" : 8820,
            "target" : 34962
        },
        {
            "buffer" : 0,
            "byteLength" : 4608,
            "byteOffset" : 14112,
            "target" : 34963
        },
        {
            "buffer" : 0,
            "byteLength" : 66048,
            "byteOffset" : 18720,
            "target" : 34962
        },
        {
            "buffer" : 0,
            "byteLength" : 44032,
            "byteOffset" : 84768,
            "target" : 34962
        },
        {
            "buffer" : 0,
            "byteLength" : 66048,
            "byteOffset" : 128800,
            "target" : 34962
        },
        {
            "buffer" : 0,
            "byteLength" : 16512,
            "byteOffset" : 194848,
            "target" : 34963
        },
        {
            "buffer" : 0,
            "byteLength" : 66048,
            "byteOffset" : 211360,
            "target" : 34962
        },
        {
            "buffer" : 0,
            "byteLength" : 44032,
            "byteOffset" : 277408,
            "target" : 34962
        },
        {
            "buffer" : 0,
            "byteLength" : 66048,
            "byteOffset" : 321440,
            "target" : 34962
        }
    ],
    "buffers" : [
        {
            "byteLength" : 387488,
            "uri" : "data:application/octet-stream;base64,"
        }
    ]
}
